<!-- Generator: Adobe Illustrator 19.0.0, SVG Export Plug-In  -->
<svg version="1.1"
	 xmlns="http://www.w3.org/2000/svg" xmlns:xlink="http://www.w3.org/1999/xlink" xmlns:a="http://ns.adobe.com/AdobeSVGViewerExtensions/3.0/"
	 x="0px" y="0px" width="19.5px" height="43.9px" viewBox="0 0 19.5 43.9" style="enable-background:new 0 0 19.5 43.9;"
	 xml:space="preserve">
<defs>
</defs>
<g>
	<g>
		<path d="M10.9,1.4C10,12.1,9.1,22.8,8.1,33.5c-0.2,1.9,2.8,1.9,3,0c0.9-10.7,1.9-21.4,2.8-32.1C14.1-0.5,11.1-0.5,10.9,1.4
			L10.9,1.4z"/>
	</g>
</g>
<g>
	<g>
		<path d="M0.1,31c1.8,4.8,4.5,8.9,8.2,12.5c0.7,0.7,1.9,0.5,2.4-0.3c2-3.5,4.8-6.2,8.2-8.4c1.6-1,0.1-3.6-1.5-2.6
			c-3.8,2.5-7,5.5-9.2,9.4c0.8-0.1,1.6-0.2,2.4-0.3C7.2,38.1,4.6,34.5,3,30.2C2.3,28.4-0.6,29.1,0.1,31L0.1,31z"/>
	</g>
</g>
</svg>
