<svg xmlns="http://www.w3.org/2000/svg" viewBox="0 0 260 63.89"><defs><style>.cls-1{opacity:0.2;}</style></defs><title>Asset 3</title><g id="Layer_2" data-name="Layer 2"><g id="Layer_1-2" data-name="Layer 1"><g class="cls-1"><polygon points="176.11 8.59 174.79 8.59 174.79 3.59 172.77 8.59 171.76 8.59 169.74 3.59 169.74 8.59 168.42 8.59 168.42 0.51 169.69 0.51 172.27 6.52 174.84 0.51 176.11 0.51 176.11 8.59"/><path d="M183,3.21V8.59h-1.26V7.86a2,2,0,0,1-1.66.87,2.74,2.74,0,0,1-2.76-2.83,2.74,2.74,0,0,1,2.76-2.83,2,2,0,0,1,1.66.87V3.21ZM181.76,5.9a1.59,1.59,0,1,0-3.16,0,1.59,1.59,0,1,0,3.16,0"/><path d="M188.66,7.86a2,2,0,0,1-1.66.87,2.74,2.74,0,0,1-2.76-2.83A2.74,2.74,0,0,1,187,3.07a2,2,0,0,1,1.66.87V.51h1.26V8.59h-1.26Zm0-2a1.59,1.59,0,1,0-3.16,0,1.59,1.59,0,1,0,3.16,0"/><path d="M192.41,6.28a1.31,1.31,0,0,0,1.44,1.4A1.06,1.06,0,0,0,195,7h1.27a2.28,2.28,0,0,1-2.41,1.75,2.56,2.56,0,0,1-2.69-2.83,2.58,2.58,0,0,1,2.65-2.83,2.42,2.42,0,0,1,2.49,2.42,4.42,4.42,0,0,1-.06.79Zm0-.94h2.68A1.24,1.24,0,0,0,193.78,4a1.26,1.26,0,0,0-1.37,1.33"/><polygon points="203.94 4.57 202.53 8.59 201.68 8.59 199.59 3.21 200.94 3.21 202.11 6.62 203.32 3.21 204.56 3.21 205.77 6.62 206.93 3.21 208.28 3.21 206.2 8.59 205.35 8.59 203.94 4.57"/><path d="M209.69.31a.93.93,0,1,1-.92.93.93.93,0,0,1,.92-.93m-.62,2.9h1.26V8.59h-1.26Z"/><path d="M214.93,8.59a6.08,6.08,0,0,1-.93.07c-.61,0-1.74-.08-1.74-1.89V4.26h-.91V3.21h.91V1.58h1.26V3.21h1.24V4.26h-1.24V6.48c0,.93.29,1.05.78,1.05a4.79,4.79,0,0,0,.64,0Z"/><path d="M215.94.51h1.26V4A1.91,1.91,0,0,1,219,3.07a1.83,1.83,0,0,1,1.62.73,2.7,2.7,0,0,1,.35,1.59v3.2h-1.26V5.81c0-.92-.27-1.63-1.17-1.63s-1.29.7-1.29,1.63V8.59h-1.26Z"/><path d="M172.33,19.16c0,1.12-1,1.64-2.15,1.64a2,2,0,0,1-2.19-2h1.22c0,.7.44,1,1,1s.88-.16.88-.62-.54-.54-1.67-1c-.75-.29-1.28-.57-1.28-1.5s.92-1.56,2-1.56A1.92,1.92,0,0,1,172.25,17H171a.75.75,0,0,0-.87-.83c-.43,0-.77.21-.77.59s.5.52,1.48.9c.75.29,1.47.55,1.47,1.53"/><path d="M173.19,18A2.84,2.84,0,1,1,176,20.8,2.76,2.76,0,0,1,173.19,18m4.42,0a1.59,1.59,0,1,0-3.16,0,1.59,1.59,0,1,0,3.16,0"/><path d="M186.88,20.66v-3c0-.85-.3-1.4-1-1.4s-1.13.39-1.13,1.67v2.74h-1.26v-3c0-.85-.28-1.38-1-1.38s-1.15.39-1.15,1.67v2.74h-1.26V15.28h1.26V16a1.84,1.84,0,0,1,3.2.07,1.8,1.8,0,0,1,1.65-1c1.62,0,1.94,1.11,1.94,2.11v3.4Z"/><path d="M190.55,18.35a1.31,1.31,0,0,0,1.44,1.4,1.07,1.07,0,0,0,1.14-.7h1.27A2.28,2.28,0,0,1,192,20.8,2.56,2.56,0,0,1,189.3,18,2.58,2.58,0,0,1,192,15.14a2.42,2.42,0,0,1,2.49,2.42,4.45,4.45,0,0,1-.06.78Zm0-.93h2.68a1.24,1.24,0,0,0-1.3-1.33,1.26,1.26,0,0,0-1.37,1.33"/><path d="M201.73,13.71a2.14,2.14,0,0,0-.55-.08c-.39,0-.85,0-.85.84v.81h1.41v1.05h-1.41v4.33h-1.26V16.33H198V15.28h1.1v-.67c0-2.05,1.32-2.1,1.94-2.1a1.75,1.75,0,0,1,.73.14Z"/><path d="M206.08,16.45a1.83,1.83,0,0,0-.5-.06c-1.07,0-1.66.61-1.66,2v2.32h-1.26V15.28h1.26v.87a1.94,1.94,0,0,1,1.66-.93,1.28,1.28,0,0,1,.5.08Z"/><path d="M207.59,12.39a.93.93,0,1,1-.92.93.93.93,0,0,1,.92-.93m-.62,2.9h1.26v5.38H207Z"/><path d="M210.72,18.35a1.31,1.31,0,0,0,1.44,1.4,1.07,1.07,0,0,0,1.14-.7h1.27a2.28,2.28,0,0,1-2.41,1.75A2.56,2.56,0,0,1,209.47,18a2.58,2.58,0,0,1,2.65-2.83,2.42,2.42,0,0,1,2.49,2.42,4.45,4.45,0,0,1-.06.78Zm0-.93h2.68a1.24,1.24,0,0,0-1.3-1.33,1.26,1.26,0,0,0-1.37,1.33"/><path d="M215.92,15.28h1.26V16a1.91,1.91,0,0,1,1.75-.89,1.83,1.83,0,0,1,1.62.73,2.7,2.7,0,0,1,.35,1.59v3.2h-1.26V17.88c0-.92-.27-1.63-1.17-1.63s-1.29.7-1.29,1.63v2.78h-1.26Z"/><path d="M226.44,19.93a2,2,0,0,1-1.66.87,2.83,2.83,0,0,1,0-5.66,2,2,0,0,1,1.66.87V12.58h1.26v8.08h-1.26Zm0-2a1.59,1.59,0,1,0-3.16,0,1.59,1.59,0,1,0,3.16,0"/><path d="M233.24,19.16c0,1.12-1,1.64-2.15,1.64a2,2,0,0,1-2.19-2h1.22c0,.7.44,1,1,1s.88-.16.88-.62-.54-.54-1.67-1c-.75-.29-1.28-.57-1.28-1.5s.92-1.56,2-1.56A1.92,1.92,0,0,1,233.16,17h-1.22a.75.75,0,0,0-.87-.83c-.43,0-.77.21-.77.59s.5.52,1.48.9c.75.29,1.47.55,1.47,1.53"/><path d="M240.49,13.71a2.14,2.14,0,0,0-.55-.08c-.39,0-.85,0-.85.84v.81h1.41v1.05h-1.41v4.33h-1.26V16.33h-1.1V15.28h1.1v-.67c0-2.05,1.32-2.1,1.94-2.1a1.75,1.75,0,0,1,.73.14Z"/><path d="M244.84,16.45a1.83,1.83,0,0,0-.5-.06c-1.07,0-1.66.61-1.66,2v2.32h-1.26V15.28h1.26v.87a1.94,1.94,0,0,1,1.66-.93,1.28,1.28,0,0,1,.5.08Z"/><path d="M245.06,18a2.84,2.84,0,1,1,2.83,2.83A2.76,2.76,0,0,1,245.06,18m4.42,0a1.59,1.59,0,1,0-3.16,0,1.59,1.59,0,1,0,3.16,0"/><path d="M258.74,20.66v-3c0-.85-.3-1.4-1-1.4s-1.13.39-1.13,1.67v2.74h-1.26v-3c0-.85-.28-1.38-1-1.38s-1.15.39-1.15,1.67v2.74H252V15.28h1.26V16a1.84,1.84,0,0,1,3.2.07,1.8,1.8,0,0,1,1.65-1c1.62,0,1.94,1.11,1.94,2.11v3.4Z"/><path d="M203.93,50.55a7.06,7.06,0,1,1-7.06-7,6.95,6.95,0,0,1,7.06,7m-3.09,0a4,4,0,1,0-4,4.26,4.05,4.05,0,0,0,4-4.26"/><path d="M219.27,50.55a7.06,7.06,0,1,1-7.06-7,6.95,6.95,0,0,1,7.06,7m-3.09,0a4,4,0,1,0-4,4.26,4.05,4.05,0,0,0,4-4.26"/><path d="M234,44V56.57c0,5.19-3.06,7.32-6.68,7.32a6.7,6.7,0,0,1-6.23-4.15l2.69-1.12a3.89,3.89,0,0,0,3.54,2.5c2.32,0,3.75-1.44,3.75-4.13V56H231a4.79,4.79,0,0,1-3.7,1.6,7,7,0,0,1,0-14.06,4.87,4.87,0,0,1,3.7,1.57h.11V44Zm-2.72,6.62c0-2.48-1.65-4.29-3.75-4.29a4.28,4.28,0,0,0,0,8.52,3.93,3.93,0,0,0,3.75-4.23"/><rect x="236.04" y="36.49" width="3.09" height="20.66"/><path d="M250.87,52.87l2.4,1.6a7,7,0,0,1-5.86,3.12,6.81,6.81,0,0,1-6.89-7c0-4.18,2.93-7,6.55-7a6.53,6.53,0,0,1,6,4.47l.32.8L244,52.68a3.58,3.58,0,0,0,3.41,2.13,4,4,0,0,0,3.46-1.94m-7.38-2.53,6.28-2.61a2.72,2.72,0,0,0-2.61-1.49,3.86,3.86,0,0,0-3.67,4.1"/><path d="M178.65,57.58a10.92,10.92,0,1,1,0-21.83,10.4,10.4,0,0,1,7.48,3l-2.1,2.1a7.61,7.61,0,0,0-5.38-2.13,7.94,7.94,0,0,0,0,15.87,7.31,7.31,0,0,0,5.51-2.18,6.22,6.22,0,0,0,1.62-3.75h-7.14v-3h10a9.73,9.73,0,0,1,.16,1.86,9.85,9.85,0,0,1-2.58,7,10,10,0,0,1-7.62,3.06"/><path d="M10.58,34.94l-.69-2.05H3.82l-.69,2.05H.33L5.92,18.78H7.79l5.59,16.16ZM6.86,23.19,4.63,30.51H9.08Z"/><path d="M16.67,31.36a1.86,1.86,0,1,1-1.85,1.87,1.86,1.86,0,0,1,1.85-1.87"/><rect x="21.15" y="18.78" width="2.75" height="16.16"/><path d="M28.12,31.36a1.86,1.86,0,1,1-1.85,1.87,1.86,1.86,0,0,1,1.85-1.87"/><polygon points="4.6 43 4.6 47.57 11.27 47.57 11.27 49.95 4.6 49.95 4.6 54.4 11.27 54.4 11.27 56.78 1.95 56.78 1.95 40.62 11.27 40.62 11.27 43 4.6 43"/><polygon points="22.83 56.78 19.93 56.78 17.87 53.32 15.82 56.78 12.91 56.78 16.42 51.35 12.98 46.02 15.89 46.02 17.87 49.39 19.86 46.02 22.77 46.02 19.33 51.35 22.83 56.78"/><path d="M26.87,47.48a4,4,0,0,1,3.32-1.73,5.66,5.66,0,0,1,0,11.31,4,4,0,0,1-3.32-1.73v6.86H24.36V46h2.52Zm0,3.92A3.17,3.17,0,1,0,30.06,48a3.22,3.22,0,0,0-3.19,3.42"/><path d="M39.36,52.16c.12,1.55.78,2.79,2.88,2.79a2.13,2.13,0,0,0,2.29-1.41h2.54c-.3,1.85-2.08,3.51-4.82,3.51-3.62,0-5.38-2.49-5.38-5.66s1.92-5.65,5.31-5.65a4.85,4.85,0,0,1,5,4.85A8.82,8.82,0,0,1,47,52.16Zm0-1.87h5.35a2.48,2.48,0,0,0-2.61-2.65,2.52,2.52,0,0,0-2.75,2.65"/><path d="M55.9,48.35a3.65,3.65,0,0,0-1-.12c-2.15,0-3.32,1.22-3.32,3.9v4.64H49.07V46h2.52v1.73a3.88,3.88,0,0,1,3.32-1.87,2.56,2.56,0,0,1,1,.16Z"/><path d="M59,40.23A1.86,1.86,0,1,1,57.2,42.1,1.86,1.86,0,0,1,59,40.23M57.8,46h2.52V56.78H57.8Z"/><path d="M76.21,56.78v-6c0-1.71-.6-2.79-2-2.79s-2.26.79-2.26,3.35v5.47H69.43v-6c0-1.71-.55-2.77-2-2.77s-2.31.79-2.31,3.35v5.47H62.64V46h2.52v1.5a3.69,3.69,0,0,1,6.39.14,3.61,3.61,0,0,1,3.3-1.92c3.23,0,3.88,2.22,3.88,4.22v6.81Z"/><path d="M82.86,52.16C83,53.71,83.64,55,85.74,55A2.13,2.13,0,0,0,88,53.55h2.54c-.3,1.85-2.08,3.51-4.82,3.51-3.62,0-5.38-2.49-5.38-5.66s1.92-5.65,5.31-5.65a4.85,4.85,0,0,1,5,4.85,8.82,8.82,0,0,1-.12,1.57Zm0-1.87h5.35a2.48,2.48,0,0,0-2.61-2.65,2.52,2.52,0,0,0-2.75,2.65"/><path d="M92.57,46h2.52v1.5a3.82,3.82,0,0,1,3.51-1.78,3.65,3.65,0,0,1,3.23,1.45,5.4,5.4,0,0,1,.69,3.19v6.39H100V51.22c0-1.85-.53-3.25-2.33-3.25s-2.59,1.41-2.59,3.25v5.56H92.57Z"/><path d="M111,56.78a12.17,12.17,0,0,1-1.87.14c-1.22,0-3.49-.16-3.49-3.79v-5h-1.82V46h1.82V42.77h2.52V46h2.47v2.1h-2.47v4.43c0,1.87.58,2.1,1.57,2.1a9.58,9.58,0,0,0,1.27-.09Z"/><path d="M6.61.51H7.87V4a1.91,1.91,0,0,1,1.75-.89,1.83,1.83,0,0,1,1.62.73,2.7,2.7,0,0,1,.35,1.59v3.2H10.33V5.81c0-.92-.27-1.63-1.17-1.63s-1.29.7-1.29,1.63V8.59H6.61Z"/><path d="M13.74.31a.93.93,0,1,1-.92.93.93.93,0,0,1,.92-.93m-.62,2.9h1.26V8.59H13.12Z"/><path d="M19.91,7.09c0,1.12-1,1.64-2.15,1.64a2,2,0,0,1-2.19-2H16.8c0,.7.44,1,1,1s.88-.16.88-.62-.54-.54-1.67-1c-.75-.29-1.28-.57-1.28-1.5s.92-1.56,2-1.56A1.92,1.92,0,0,1,19.83,4.9H18.61a.75.75,0,0,0-.87-.83c-.43,0-.77.21-.77.59s.5.52,1.48.9c.75.29,1.47.55,1.47,1.53"/><path d="M24.63.31a.93.93,0,1,1-.92.93.93.93,0,0,1,.92-.93M24,3.21h1.26V8.59H24Z"/><path d="M30.81,7.09c0,1.12-1,1.64-2.15,1.64a2,2,0,0,1-2.19-2h1.22c0,.7.44,1,1,1s.88-.16.88-.62-.54-.54-1.67-1c-.75-.29-1.28-.57-1.28-1.5s.92-1.56,2-1.56A1.92,1.92,0,0,1,30.73,4.9H29.5a.75.75,0,0,0-.87-.83c-.43,0-.77.21-.77.59s.5.52,1.48.9c.75.29,1.47.55,1.47,1.53"/><path d="M40.18,3.21V8.59H38.92V7.86a2,2,0,0,1-1.66.87A2.74,2.74,0,0,1,34.5,5.9a2.74,2.74,0,0,1,2.76-2.83,2,2,0,0,1,1.66.87V3.21ZM38.92,5.9a1.59,1.59,0,1,0-3.16,0,1.59,1.59,0,1,0,3.16,0"/><path d="M41.8,3.21h1.26V4a1.91,1.91,0,0,1,1.75-.89,1.83,1.83,0,0,1,1.62.73,2.7,2.7,0,0,1,.35,1.59v3.2H45.52V5.81c0-.92-.27-1.63-1.17-1.63s-1.29.7-1.29,1.63V8.59H41.8Z"/><rect x="137.96" width="0.52" height="57.78"/></g><g class="cls-1"><path d="M2.25,8.59V1.74H0V.52H5.78V1.74H3.53V8.59Z"/></g></g></g></svg>