<?xml version="1.0" encoding="utf-8"?>
<!-- Generator: Adobe Illustrator 21.0.2, SVG Export Plug-In . SVG Version: 6.00 Build 0)  -->
<svg version="1.1" id="Layer_1" xmlns="http://www.w3.org/2000/svg" xmlns:xlink="http://www.w3.org/1999/xlink" x="0px" y="0px"
	 viewBox="0 0 400 100" style="enable-background:new 0 0 400 100;" xml:space="preserve">
<g>
	<path d="M57.9,58.7c0.1-0.3,0.4-1.5,0.7-2.7c1.1-4.2,0.6-9.5-1.5-15.6c-1.2-3.4-1.5-4-2.5-4.3c-0.4-0.1-1.2-0.4-1.8-0.7
		c-1.6-0.7-3.8-0.9-5.6-0.4c-3.9,1.1-6.4,4.2-8.1,10.2c-1.1,3.6-1.2,7.4-0.4,9.7c1.1,3.3,3.4,5.8,6.7,7.3c3.6,1.7,7.4,1.9,9.4,0.5
		c1.1-0.7,1.5-0.7,1.5,0.3c0,0.9,0.5,1.3,1.5,1.3c1.9,0,2.4-2.2,0.9-4C58.1,59.6,57.9,59,57.9,58.7z M55.3,55.7
		c-0.1,0.1-0.6-0.3-1.1-0.9c-1.8-2.2-2.5-2.6-3.5-1.6c-0.9,0.8-0.6,1.8,1.2,3.9c0.9,1.1,1.6,2.1,1.6,2.2c0,0.5-1.2,1.1-2.2,1.1
		c-2.6,0-6-1.6-7.9-3.7c-2.1-2.4-2.5-5.3-1.4-9.9c1.2-4.7,3.1-7.6,5.5-8.5c1.4-0.5,2.4-0.5,3.6-0.1c0.5,0.2,1,0.6,1,0.8
		c0,0.2,0.4,0.6,0.8,0.9c0.7,0.3,0.9,0.8,1.5,2.6c1,3.2,1.5,6.1,1.5,8.5C55.9,53.2,55.6,55.4,55.3,55.7z"/>
	<path d="M73.5,41.5c-0.4,0-0.9,0.2-1.1,0.5c-0.2,0.3-1.5,3.4-2.8,6.9c-1.3,3.5-2.6,6.6-2.8,6.8c-0.4,0.5-1,0.1-1.7-1.2
		c-0.6-1.1-0.4-7.4,0.4-10.4L66,42l-0.8-0.6c-0.8-0.7-1.2-0.8-1.9-0.4c-1.1,0.6-2,6.1-1.8,10.9c0.1,2.6,0.2,3.5,0.7,4.3
		c1.5,2.8,4.2,3.9,6.3,2.6c0.5-0.3,1-0.8,1.2-1.1c0.5-1,5.5-14.3,5.5-14.7C75.2,42.4,74.2,41.5,73.5,41.5z"/>
	<path d="M80.7,35.2c-0.7,1-0.6,2.7,0.2,3.5c0.9,0.9,1.9,0.8,2.8-0.2c0.9-1,1-2.5,0.2-3.3C83.1,34.4,81.3,34.4,80.7,35.2z"/>
	<path d="M79.1,42.4c-0.2,0.4-0.6,2.6-1,5.6c-0.3,2.7-0.7,5.5-0.7,6.1c-0.1,1-0.1,1.2,0.5,1.8c0.9,0.9,1.3,0.9,2.1,0.2
		c0.5-0.4,0.7-1.2,1.3-6.9c0.7-6.1,0.7-6.4,0.2-6.9C80.8,41.6,79.6,41.6,79.1,42.4z"/>
	<path d="M99,55.4c-1-0.6-2-0.4-2.5,0.7c-0.6,1.1-1.5,1.4-3.4,1.2c-2.5-0.3-3.8-0.7-4.4-1.5c-0.8-1-0.7-3.1,0.3-6.2
		c0.7-2.1,1-2.9,2-3.8c1.9-2,3.3-1.7,5.2,1.1c0.6,0.9,1.5,0.9,2.2,0.2c0.3-0.3,0.5-1.2,0.6-2.2c0.2-2-0.2-2.8-1.7-2.8
		c-0.5,0-1.3-0.2-1.9-0.4c-1.4-0.6-3.4-0.5-4.8,0.2c-2.4,1.2-4.1,3.7-5.3,8c-2,7.1,0.8,10.7,8.3,10.8c2.7,0.1,3.5-0.2,4.9-1.7
		c0.5-0.5,0.9-1.2,0.9-1.9C99.7,56,99.6,55.8,99,55.4z"/>
	<path d="M113.1,39.5c-0.2,0.2-1.2,1.3-2,2.6c-2.3,3.4-2.4,3.5-2.4,1.5c0-1.8,0.4-5,0.7-6.2c0.1-0.5,0.1-0.9-0.4-1.3
		c-0.8-0.8-1.8-0.7-2.6,0.2c-0.6,0.7-0.7,1.2-1.2,7.6c-0.2,3.7-0.6,8.4-0.9,10.4c-0.4,3.7-0.3,4.7,0.5,5c1.5,0.6,2.3-0.2,2.5-2.7
		c0.1-1,0.3-1.9,0.4-2c0.1-0.1,0.6,0.5,1,1.2c1.5,2.5,1.6,2.6,2.6,2.5c0.6-0.1,1-0.3,1.3-0.9c0.4-0.7,0.4-0.8-0.4-2.2
		c-0.4-0.8-1.3-2.2-2-3.1c-0.7-0.9-1.2-1.8-1.2-1.9c0-0.1,0.8-1.2,1.7-2.3c0.9-1.1,2.4-3.1,3.2-4.3c1.3-2,1.5-2.4,1.3-3
		C115,39.6,113.8,39,113.1,39.5z"/>
	<path d="M118.6,53.3c-0.8,0.8-0.7,1.3,0.3,2.8c1.1,1.6,1,2.5-0.3,2.9c-1.3,0.4-1.9,0.9-1.9,1.8c0,1.2,0.7,1.9,1.8,1.9
		c0.5,0,1.1-0.2,1.3-0.4c0.2-0.2,0.5-0.4,0.7-0.4c0.2,0,0.8-0.4,1.3-0.9c1.9-1.6,1.8-4.2-0.1-6.7C120.5,52.7,119.5,52.4,118.6,53.3z
		"/>
	<path d="M148.3,36.6c-2-0.9-2.3-1-4.9-1.1c-1.5,0-3.3,0.1-4.1,0.2c-0.7,0.2-1.6,0.5-1.8,0.7c-1.1,1-0.1,2.9,1.4,2.8
		c0.9-0.1,0.9-0.5,0.1,4.9c-0.3,2.1-0.7,5.9-1,8.5c-0.9,9.2-0.7,8.5-1.5,8.6c-2.1,0.3-2.2,2.8-0.1,3.2c0.5,0.1,1.1,0.3,1.3,0.5
		c0.4,0.5,1.9,0.5,2.5-0.1c0.3-0.2,1.5-0.8,2.6-1.2c3.1-1,5.1-2.3,7.9-5.1c2.8-2.8,4-4.8,4.7-8.1c0.6-2.8,0.2-4.8-1.4-8.2
		C152.3,39.3,151,37.9,148.3,36.6z M148.2,56.5c-1.6,1.6-2.8,2.5-4.3,3.2c-3.2,1.6-3.2,1.6-3.1-0.9c0.2-4.8,1.9-19,2.4-19.8
		c0.3-0.5,1.9-0.2,3.5,0.5c1.8,0.9,3.1,2.1,4.1,4.2C153.3,48.4,152.5,52.2,148.2,56.5z"/>
	<path d="M165.5,42.7c-0.8,0.4-4,3.5-4,4c0,0.1-0.1,0.2-0.3,0.2c-0.4,0-0.4-1.5,0-1.8c0.2-0.2,0.2-0.6,0.2-1.1
		c-0.1-1-1.2-1.6-2.2-1.4c-1.4,0.4-1.6,1.1-1.6,8.4c0,6.2,0,6.6,0.5,7.1c0.3,0.3,0.8,0.5,1.1,0.5c0.7,0,1.6-1,1.6-1.7
		c0-2.2,2.2-7.4,4.1-9.5c1-1.2,1.1-1.2,1.6-0.8c0.7,0.6,2.1,0.6,2.6,0c0.6-0.7,0.6-2.5,0-3.2C168.3,42.3,167,42.1,165.5,42.7z"/>
	<path d="M185.7,49.8c-0.1-3.2-0.2-3.6-0.9-5c-1.5-2.9-3.5-4.4-5.8-4.4c-0.7,0-1.7,0.2-2.1,0.4c-1.2,0.5-3,2.7-3.7,4.5
		c-0.8,2.1-1.3,5.2-1.3,7.3c0,3.8,1.6,5.5,5.7,6.1c2.4,0.4,3.5,0,4.6-1.5c0.4-0.6,0.9-1.2,1-1.3c0.1-0.1,0.5-0.1,1,0.2
		c1.1,0.6,1.6,0.5,2.3-0.1c0.7-0.7,0.7-1.7,0-2.3C185.9,53.3,185.8,52.8,185.7,49.8z M182.3,48.6c-0.3,1.5-1.2,3.9-2.1,5.5
		c-0.8,1.3-0.9,1.5-1.9,1.5c-1.6,0-2.9-0.7-3.1-1.5c-0.3-1.2,0.1-4.5,0.7-6.5c1-3.3,2.8-4.5,4.5-3.2
		C181.6,45.2,182.5,47.4,182.3,48.6z"/>
	<path d="M202.7,40.3c-0.9,0.3-1.2,1.8-1.3,5.6c-0.1,2.1-0.2,3.8-0.4,3.8c-0.1,0-0.5-0.8-0.8-1.8c-0.7-2.2-1.8-3.5-2.8-3.2
		c-1,0.3-1.2,0.6-2.6,4.2c-0.7,1.9-1.4,3.4-1.5,3.4c-0.1,0-0.4-1.8-0.7-4.1c-0.7-5.3-0.7-5.6-1.6-6c-0.6-0.3-0.9-0.3-1.4,0.1
		c-0.9,0.6-0.9,1.2,0,8.2c0.9,7.4,1.6,9.5,3.1,9.9c1.1,0.3,1.8-0.8,3.2-4.8c0.7-2,1.4-3.8,1.5-4c0.1-0.1,0.4,0.1,0.5,0.5
		c1.2,3.2,2.6,5.1,4,5.1c0.5,0,1-0.2,1.2-0.4c0.7-0.9,1.1-3.5,1.4-8.5c0.1-2.9,0.3-5.6,0.4-6.1C205.2,40.8,204,39.8,202.7,40.3z"/>
	<path d="M207.6,52.7c-0.5,0.4-0.6,0.7-0.6,2.2c0,1.5,0.1,1.9,0.7,2.4c1.5,1.5,4,0.2,4-2.1c0-0.9-0.2-1.3-0.9-2.1
		C209.7,52.1,208.7,51.9,207.6,52.7z"/>
	<path d="M243.1,35.5c-2.2-0.1-4-0.2-4.2-0.4c-0.4-0.3-1.3-0.3-1.8,0c-0.2,0.1-2.6,0.3-5.4,0.3c-4.4,0-5,0.1-5.4,0.5
		c-0.6,0.7-0.6,1.5,0.1,2.1c1,0.9,9.2,0.5,9.5,1c0.2,0.2-2.3,15.9-2.6,16.4c-0.1,0.2-0.2,1.1-0.2,1.9c0,1.6,0.6,2.5,1.7,2.5
		c0.8,0,1.8-1.2,1.8-2.2c0-0.8,2.7-18.1,2.9-18.6c0.2-0.5,4.2-0.4,4.9,0.1c0.9,0.6,1.6,0.5,2.6-0.5c1-1,1.1-1.7,0.5-2.6
		C247.1,35.7,246.7,35.6,243.1,35.5z"/>
	<path d="M259.3,41.2c-0.9,0-3.7,2.4-4.9,4c-0.6,0.8-1.2,1.5-1.3,1.5c-0.1,0-0.2-2.5-0.2-5.5c0-4.9,0-5.6-0.4-6
		c-0.6-0.6-1.5-0.7-2.2-0.2c-0.5,0.4-0.5,0.8-0.5,8.6c0,12,0.3,14.1,2,14.1c1,0,1.5-0.7,2.3-3.6c0.9-3,2.3-6.2,3.4-7.6l0.7-0.8
		l0.2,0.7c0.3,0.9,1.4,8.4,1.4,9.7c0,1.9,1.8,3.1,2.8,1.9c0.6-0.7,0.6-2.3-0.1-7.1C261.5,43.1,260.9,41.2,259.3,41.2z"/>
	<path d="M279.8,55.7c-0.9-0.6-1.5-0.5-2.5,0.4c-1.4,1.2-2.5,1.7-4.2,1.7c-1.8,0-3.1-0.5-4-1.5c-0.5-0.6-0.6-1-0.5-2.4l0.1-1.6
		l3.5-1.4c4.3-1.7,4.7-2.1,4.4-4.2c-0.3-2.8-1.8-5-3.7-5.5c-1.1-0.3-1-0.3-2.3,0.1c-3.4,1.1-5.6,5.9-5.4,12c0.1,3.5,0.5,4.6,2.1,6
		c1.6,1.4,3.2,1.9,5.8,1.9c1.7,0,2.4-0.1,3.7-0.8C280,58.8,281.3,56.7,279.8,55.7z M270.7,44.7c0.6-0.7,1.6-0.6,2.1,0.2
		c0.7,1.2,0.4,1.8-1.4,2.5c-0.9,0.4-1.7,0.7-1.9,0.7C269,48.1,269.7,45.9,270.7,44.7z"/>
	<path d="M305.6,38.7c-3.6,0.9-7.6,3.2-8,4.5c-0.4,1.7,1.3,2.5,2.9,1.4c1-0.7,1.7-0.9,1.7-0.5c0,0.1-0.3,1.4-0.7,3
		c-0.4,1.5-1.1,4.9-1.7,7.4c-0.6,2.6-1,4.8-1.1,4.9c-0.1,0.1-0.3,0.2-0.5,0.2c-0.8,0-1.3,2.2-0.7,2.6c0.2,0.1,0.5,0.6,0.7,1.1
		c0.5,1.3,1.5,1.7,2.5,1.1c0.4-0.2,0.7-0.6,0.7-0.9c0-0.5,0.8-0.9,3-1.1c4.7-0.5,8.3-3.9,9.4-8.7c0.7-3-0.4-11-1.8-13.7
		C310.9,38.3,309.1,37.9,305.6,38.7z M308.9,56.7c-1,1.3-3.1,2.4-5,2.6c-1.5,0.2-1.5,0.1-1.5-0.5c0-0.7,2.1-10.4,3.2-14.9
		c0.4-1.8,0.5-1.9,1.3-2.1c1.3-0.3,1.7-0.3,2,0.1c0.2,0.2,0.6,1.7,1,3.3C311.1,50.4,310.8,54.2,308.9,56.7z"/>
	<path d="M329.1,49c0-1.8-0.7-3.7-2.4-5.8c-1.6-2.1-4.6-3-6.6-2.1c-2.8,1.3-4,4.2-4.2,10.1c-0.1,4.9,0.2,6.6,1.5,7.8
		c1.8,1.6,4.3,0.9,7.2-1.8c0.9-0.8,1.7-1.5,1.8-1.5s0.4,0.6,0.6,1.3c0.2,0.7,0.5,1.5,0.8,1.8c0.7,0.7,1.9,0.6,2.4-0.2
		c0.4-0.7,0.4-0.8-0.1-2.7C329.5,53.2,329.1,51,329.1,49z M325.4,49.8c-0.5,2-1.5,3.7-3.2,5.2c-2.8,2.5-3.2,2-3-3.5
		c0.1-4.3,0.6-6.1,1.8-7c0.7-0.6,1.4-0.5,2.5,0.2c0.4,0.3,1,1.2,1.4,2C325.7,48.2,325.8,48.3,325.4,49.8z"/>
	<path d="M342.2,41.4c-1.7,0.2-1.8,0.2-1.8-0.4c0-0.3,0.1-1.2,0.3-1.9c0.3-1.2,0.3-1.3-0.4-1.9c-0.9-0.8-1.3-0.8-2-0.2
		c-0.3,0.3-0.7,1.3-1,2.6c-0.7,3-0.7,3.1-2.3,3.7c-1.4,0.5-2.2,1.3-2.2,2c0,0.2,0.3,0.7,0.7,1c0.6,0.6,0.9,0.7,1.6,0.5l0.8-0.2
		l-0.2,1.3c-0.1,0.7-0.2,2.9-0.3,4.8l-0.2,3.4l0.9,1c1,1.2,2.2,1.5,3.8,1c1.6-0.4,2.3-1.2,2.1-2.1c-0.2-1.1-0.9-1.5-2.3-1.3
		l-1.2,0.2v-1.3c0-1.7,0.8-8.1,1.1-8.3c0.1-0.1,1.2-0.4,2.4-0.5c1.2-0.2,2.4-0.5,2.7-0.7c0.6-0.5,0.6-1.6-0.1-2.3
		C344.1,41.3,343.8,41.2,342.2,41.4z"/>
	<path d="M361.5,56c-0.8-2.8-1.2-4.9-1.2-7c0-1.8-0.7-3.7-2.4-5.8c-1.6-2.1-4.6-3-6.6-2.1c-2.8,1.3-4,4.2-4.2,10.1
		c-0.1,4.9,0.2,6.6,1.5,7.8c1.8,1.6,4.3,0.9,7.2-1.8c0.9-0.8,1.7-1.5,1.8-1.5s0.4,0.6,0.6,1.3c0.2,0.7,0.5,1.5,0.8,1.8
		c0.7,0.7,1.9,0.6,2.4-0.2C362,58,362,57.8,361.5,56z M356.6,49.8c-0.5,2-1.5,3.7-3.2,5.2c-2.8,2.5-3.2,2-3-3.5
		c0.1-4.3,0.6-6.1,1.8-7c0.7-0.6,1.4-0.5,2.5,0.2c0.4,0.3,1,1.2,1.4,2C357,48.2,357,48.3,356.6,49.8z"/>
	<path d="M211.2,31.3c-1.3,5.8-2.5,11.7-3.1,17.5c-0.3,2.2,3.2,2.2,3.5,0c0.6-5.5,1.8-11.2,3-16.6C215.1,30,211.7,29.1,211.2,31.3z"
		/>
</g>
</svg>
